<svg version="1" xmlns="http://www.w3.org/2000/svg" width="400" height="400" viewBox="0 0 300.000000 300.000000"><path d="M83.1 50.4c-.9 1-1.1 13.5-.9 47.2.3 38.7.5 46.3 1.8 48.2 1.2 1.9 20.3 17 24.7 19.5.8.5 1-8.8.6-37.3l-.4-38 2.4-2.4c2.1-2.1 3-2.3 6-1.6 3.3.7 5.7 2.5 20.2 15.1 1.6 1.5 11.6 10 22 18.9 10.5 8.9 20.1 17.2 21.5 18.4 1.4 1.1 7.2 6.2 13 11.1 15 12.9 17 14.7 17 15.6 0 .8-9.7 8.7-17.5 14.3-1.4 1.1-3.5 2.7-4.5 3.5-1 .9-8.6 6.7-16.7 12.8-8.1 6.2-23.1 17.6-33.2 25.3-17.3 13.2-18.6 14-22.6 13.8-5.1-.1-6.3.5-8 4.5-2.6 6.3 2.5 12.3 9.1 10.6 2.9-.8 5.9-4.5 5.9-7.5 0-.8 18.2-15.4 40.5-32.4 22.3-17.1 41.6-32 43-33.1 1.4-1.1 3.7-2.7 5.1-3.6 3-1.8 5.9-6.2 5.9-9.1 0-1.8-4.1-6.1-13-13.6-1.9-1.6-5.1-4.3-7.1-6-1.9-1.7-6-5.2-9-7.7-2.9-2.5-15.5-13.3-27.9-23.9-12.4-10.6-25-21.3-28-23.9-3-2.5-7.5-6.4-10-8.6-12.3-10.6-17-14.7-23.5-20.1-3.8-3.3-8.3-7.1-10-8.6-3.4-3.1-4.7-3.4-6.4-1.4z"/><path d="M82.2 203.5c.2 29.5.7 46 1.3 46.5.9.8 20.1-13.5 59.4-44.2 9.1-7.1 10.9-8.1 15-8.4 8.5-.5 12.2-9 6.5-14.8-5.1-5.1-14.7-1.8-14.7 5 0 2.6-1.4 4-11.5 11.4-6.3 4.7-12 9-12.6 9.5-3.3 3-7.7 5.5-9.8 5.5-4.8 0-5.6-2.4-5.9-16-.3-18.1-1-19.6-15.5-30.7-4.2-3.2-8.7-6.6-10.1-7.7l-2.4-1.8.3 45.7zm79.5-14.6c.1 1.4-.6 2.3-2.2 2.7-3 .7-4.5-.2-4.5-2.6 0-4.3 6.4-4.4 6.7-.1z"/></svg>