<svg id="background" xmlns="http://www.w3.org/2000/svg" viewBox="0 0 610 610"><defs><style>.cls-1{fill:#28232d;}.cls-2{fill:#1e3d51;}.cls-3{opacity:0.25;}.cls-4,.cls-5,.cls-6{fill:none;}.cls-4,.cls-5{stroke:#fff;stroke-miterlimit:10;}.cls-5{stroke-dasharray:5 5;}.cls-6{stroke:lime;stroke-linecap:round;stroke-linejoin:round;stroke-width:4px;}</style></defs><title>chart</title><rect class="cls-1" width="610" height="610"/><rect id="main" class="cls-2" x="66.12" y="62.5" width="475" height="475"/><g class="cls-3"><line class="cls-4" x1="123.12" y1="434.5" x2="125.62" y2="434.5"/><line class="cls-5" x1="130.62" y1="434.5" x2="478.12" y2="434.5"/><line class="cls-4" x1="480.62" y1="434.5" x2="483.12" y2="434.5"/><line class="cls-4" x1="123.12" y1="404.5" x2="125.62" y2="404.5"/><line class="cls-5" x1="130.62" y1="404.5" x2="478.12" y2="404.5"/><line class="cls-4" x1="480.62" y1="404.5" x2="483.12" y2="404.5"/><line class="cls-4" x1="123.12" y1="374.5" x2="125.62" y2="374.5"/><line class="cls-5" x1="130.62" y1="374.5" x2="478.12" y2="374.5"/><line class="cls-4" x1="480.62" y1="374.5" x2="483.12" y2="374.5"/><line class="cls-4" x1="123.12" y1="344.5" x2="125.62" y2="344.5"/><line class="cls-5" x1="130.62" y1="344.5" x2="478.12" y2="344.5"/><line class="cls-4" x1="480.62" y1="344.5" x2="483.12" y2="344.5"/><line class="cls-4" x1="123.12" y1="314.5" x2="125.62" y2="314.5"/><line class="cls-5" x1="130.62" y1="314.5" x2="478.12" y2="314.5"/><line class="cls-4" x1="480.62" y1="314.5" x2="483.12" y2="314.5"/><line class="cls-4" x1="123.12" y1="284.5" x2="125.62" y2="284.5"/><line class="cls-5" x1="130.62" y1="284.5" x2="478.12" y2="284.5"/><line class="cls-4" x1="480.62" y1="284.5" x2="483.12" y2="284.5"/><line class="cls-4" x1="123.12" y1="254.5" x2="125.62" y2="254.5"/><line class="cls-5" x1="130.62" y1="254.5" x2="478.12" y2="254.5"/><line class="cls-4" x1="480.62" y1="254.5" x2="483.12" y2="254.5"/><line class="cls-4" x1="123.12" y1="224.5" x2="125.62" y2="224.5"/><line class="cls-5" x1="130.62" y1="224.5" x2="478.12" y2="224.5"/><line class="cls-4" x1="480.62" y1="224.5" x2="483.12" y2="224.5"/><line class="cls-4" x1="123.12" y1="194.5" x2="125.62" y2="194.5"/><line class="cls-5" x1="130.62" y1="194.5" x2="478.12" y2="194.5"/><line class="cls-4" x1="480.62" y1="194.5" x2="483.12" y2="194.5"/><line class="cls-4" x1="123.12" y1="164.5" x2="125.62" y2="164.5"/><line class="cls-5" x1="130.62" y1="164.5" x2="478.12" y2="164.5"/><line class="cls-4" x1="480.62" y1="164.5" x2="483.12" y2="164.5"/><line class="cls-4" x1="453.12" y1="134.5" x2="453.12" y2="137"/><line class="cls-5" x1="453.12" y1="142" x2="453.12" y2="459.5"/><line class="cls-4" x1="453.12" y1="462" x2="453.12" y2="464.5"/><line class="cls-4" x1="403.12" y1="134.5" x2="403.12" y2="137"/><line class="cls-5" x1="403.12" y1="142" x2="403.12" y2="459.5"/><line class="cls-4" x1="403.12" y1="462" x2="403.12" y2="464.5"/><line class="cls-4" x1="353.12" y1="134.5" x2="353.12" y2="137"/><line class="cls-5" x1="353.12" y1="142" x2="353.12" y2="459.5"/><line class="cls-4" x1="353.12" y1="462" x2="353.12" y2="464.5"/><line class="cls-4" x1="303.12" y1="134.5" x2="303.12" y2="137"/><line class="cls-5" x1="303.12" y1="142" x2="303.12" y2="459.5"/><line class="cls-4" x1="303.12" y1="462" x2="303.12" y2="464.5"/><line class="cls-4" x1="253.12" y1="134.5" x2="253.12" y2="137"/><line class="cls-5" x1="253.12" y1="142" x2="253.12" y2="459.5"/><line class="cls-4" x1="253.12" y1="462" x2="253.12" y2="464.5"/><line class="cls-4" x1="203.12" y1="134.5" x2="203.12" y2="137"/><line class="cls-5" x1="203.12" y1="142" x2="203.12" y2="459.5"/><line class="cls-4" x1="203.12" y1="462" x2="203.12" y2="464.5"/><line class="cls-4" x1="153.12" y1="134.5" x2="153.12" y2="137"/><line class="cls-5" x1="153.12" y1="142" x2="153.12" y2="459.5"/><line class="cls-4" x1="153.12" y1="462" x2="153.12" y2="464.5"/></g><polyline class="cls-6" points="153.62 405 203.62 345 253.62 345 353.62 285 403.62 285 453.62 195"/></svg>