<svg xmlns="http://www.w3.org/2000/svg" xmlns:xlink="http://www.w3.org/1999/xlink" viewbox="0 0 50 50" version="1.1"><path d="M41.14 6.047c-.242-.02-.484.016-.656.101-.347.176-.515.395-.683.633-.336.477-.63 1.114-1.008 2.086-1.582 4.055-6.27 7.031-11.043 8.016A6.428 6.428 0 0 0 24.5 16c-1.57 0-3.012.563-4.137 1.496-4.215-.344-7.531-5.05-7.531-5.05L11 9.695v9.66a5.43 5.43 0 0 0-.863 1.937c-.555-.383-1.13-.707-1.723-.922-.75-.273-1.535-.406-2.297-.36-.765.048-1.5.27-2.156.704-1.305.87-1.938 2.383-1.961 3.957-.023 1.574.523 3.27 1.594 4.793 1.074 1.523 2.492 2.62 3.992 3.164a5.862 5.862 0 0 0 2.066.36c1.364 1.062 3.493 2.468 5.625 3.402 4.504 1.968 8.91 2.91 12.914 2.527 2.504-.242 4.848-1.02 6.91-2.371.325.172.649.34.973.484 2.645 1.211 5.106 2.016 6.953 2.371-.03.551.028 1.141.211 1.743.48 1.558 1.942 2.347 3.157 2.93 1.218.581 2.34.89 2.34.89l1.265.347V44s.004-1.3-.121-2.75c-.063-.727-.152-1.492-.305-2.184-.152-.691-.285-1.308-.804-1.867a3.527 3.527 0 0 0-2.172-1.14c-.778-.098-1.551.086-2.16.53-.043.028-.075.067-.11.099-1.348-1.06-3.36-2.258-5.707-3.38 2.664-3.394 3.711-8.562 4.14-13.316.434-4.836.188-9.199-.03-10.89-.07-.512-.137-1.02-.239-1.477-.101-.457-.074-.887-.71-1.367-.16-.121-.4-.192-.641-.211zm-.39 3.351c.184 1.442.438 5.778.02 10.415-.422 4.656-1.57 9.64-3.836 12.414-.067.078-.137.144-.2.222a41.054 41.054 0 0 0-2.75-1.047C34.16 29.442 31 28 31 28s.863 1.191.863 2.344C31.863 32.656 20 32 20 32s6.66 2.445 10.79 1.906c.687.477 1.468.996 2.308 1.512-1.543.832-3.246 1.328-5.098 1.504-3.555.344-7.645-.492-11.922-2.363-1.375-.602-2.836-1.489-4.015-2.293 1.289-.875 1.914-2.375 1.937-3.938a6.482 6.482 0 0 0-.016-.55c.485.136.989.222 1.516.222a5.499 5.499 0 0 0 3.84-1.57A6.482 6.482 0 0 0 24.5 29c3.578 0 6.5-2.922 6.5-6.5a6.468 6.468 0 0 0-1.387-3.992c4.785-1.34 9.29-4.41 11.043-8.914.04-.106.051-.098.094-.196zM13 15.641c.43.476.93.976 1.496 1.453a5.56 5.56 0 0 0-1.496.515zM24.5 18c2.496 0 4.5 2.004 4.5 4.5 0 .281-.031.555-.082.824A2.998 2.998 0 0 0 26 21c-.086 0-.164.02-.25.027.71.118 1.25.73 1.25 1.473a1.5 1.5 0 0 1-3 0c0-.406.164-.773.426-1.043A2.988 2.988 0 0 0 23 24c0 1.422.992 2.61 2.324 2.918-.27.05-.543.082-.824.082a4.486 4.486 0 0 1-4.5-4.5c0-2.496 2.004-4.5 4.5-4.5zm-9 1c1.176 0 2.203.574 2.84 1.453-.121.36-.211.735-.266 1.121A2.455 2.455 0 0 0 16.5 21c-.07 0-.137.016-.207.02a1.249 1.249 0 0 1-.21 2.48 1.248 1.248 0 1 1-.895-2.121 2.493 2.493 0 0 0 .855 4.574c-.18.027-.36.047-.543.047a3.482 3.482 0 0 1-2.043-.656l-.016-.012-.007-.008h-.004c-.016-.012-.032-.027-.055-.043-.016-.011-.02-.011-.035-.023a9.262 9.262 0 0 0-.934-1.723c-.105-.148-.226-.27-.336-.41A3.644 3.644 0 0 1 12 22.5c0-1.945 1.555-3.5 3.5-3.5zm-9.242 3c.449-.023.945.055 1.476.25 1.059.383 2.184 1.227 3.036 2.438.851 1.207 1.246 2.527 1.23 3.609-.016 1.086-.398 1.875-1.074 2.324-.672.45-1.602.516-2.66.129-1.059-.383-2.184-1.227-3.036-2.438-.851-1.207-1.246-2.527-1.23-3.609 0-.02.004-.035.008-.05C4.07 25.968 4.945 27 6 27c1.105 0 2-1.121 2-2.5 0-1.285-.777-2.36-1.797-2.488.02 0 .035-.008.055-.012zm40.11 15.973c.277.035.585.207.937.586-.032-.032.195.379.316.93.121.554.207 1.257.266 1.929.05.582.031.664.05 1.113-.3-.117-.328-.093-.675-.261-1.035-.493-1.977-1.278-2.11-1.711-.39-1.254.008-2.02.461-2.352.227-.164.477-.266.754-.234z" id="surface1"/><metadata><rdf:RDF xmlns:rdf="http://www.w3.org/1999/02/22-rdf-syntax-ns#" xmlns:rdfs="http://www.w3.org/2000/01/rdf-schema#" xmlns:dc="http://purl.org/dc/elements/1.1/"><rdf:Description about="https://iconscout.com/legal#licenses" dc:title="gimp" dc:description="gimp" dc:publisher="Iconscout" dc:date="2017-12-09" dc:format="image/svg+xml" dc:language="en"><dc:creator><rdf:Bag><rdf:li>Icons8</rdf:li></rdf:Bag></dc:creator></rdf:Description></rdf:RDF></metadata></svg>