<svg id="Layer_1" data-name="Layer 1" xmlns="http://www.w3.org/2000/svg" viewBox="0 0 340 340"><defs><style>.cls-1{fill:#060c0f;}.cls-2{opacity:0.25;}.cls-3,.cls-4,.cls-5{fill:none;stroke:#b1b1b4;stroke-miterlimit:10;stroke-width:0.83px;}.cls-4{stroke-dasharray:4.17 4.17;}.cls-5{stroke-dasharray:4.15 4.15;}</style></defs><title>grafik</title><path class="cls-1" d="M340,0H0V340H340Z"/><g class="cls-2"><path class="cls-3" d="M18.34,277.39h2.08"/><path class="cls-4" d="M24.59,277.39H314.38"/><path class="cls-3" d="M316.46,277.39h2.08"/><path class="cls-3" d="M18.34,252.51h2.08"/><path class="cls-4" d="M24.59,252.51H314.38"/><path class="cls-3" d="M316.46,252.51h2.08"/><path class="cls-3" d="M18.34,227.63h2.08"/><path class="cls-4" d="M24.59,227.63H314.38"/><path class="cls-3" d="M316.46,227.63h2.08"/><path class="cls-3" d="M18.34,202.76h2.08"/><path class="cls-4" d="M24.59,202.76H314.38"/><path class="cls-3" d="M316.46,202.76h2.08"/><path class="cls-3" d="M18.34,177.88h2.08"/><path class="cls-4" d="M24.59,177.88H314.38"/><path class="cls-3" d="M316.46,177.88h2.08"/><path class="cls-3" d="M18.34,153h2.08"/><path class="cls-4" d="M24.59,153H314.38"/><path class="cls-3" d="M316.46,153h2.08"/><path class="cls-3" d="M18.34,128.12h2.08"/><path class="cls-4" d="M24.59,128.12H314.38"/><path class="cls-3" d="M316.46,128.12h2.08"/><path class="cls-3" d="M18.34,103.24h2.08"/><path class="cls-4" d="M24.59,103.24H314.38"/><path class="cls-3" d="M316.46,103.24h2.08"/><path class="cls-3" d="M18.34,78.37h2.08"/><path class="cls-4" d="M24.59,78.37H314.38"/><path class="cls-3" d="M316.46,78.37h2.08"/><path class="cls-3" d="M18.34,53.49h2.08"/><path class="cls-4" d="M24.59,53.49H314.38"/><path class="cls-3" d="M316.46,53.49h2.08"/><path class="cls-3" d="M293.53,28.61v2.07"/><path class="cls-5" d="M293.53,34.83V298.12"/><path class="cls-3" d="M293.53,300.2v2.07"/><path class="cls-3" d="M251.83,28.61v2.07"/><path class="cls-5" d="M251.83,34.83V298.12"/><path class="cls-3" d="M251.83,300.2v2.07"/><path class="cls-3" d="M210.14,28.61v2.07"/><path class="cls-5" d="M210.14,34.83V298.12"/><path class="cls-3" d="M210.14,300.2v2.07"/><path class="cls-3" d="M168.44,28.61v2.07"/><path class="cls-5" d="M168.44,34.83V298.12"/><path class="cls-3" d="M168.44,300.2v2.07"/><path class="cls-3" d="M126.75,28.61v2.07"/><path class="cls-5" d="M126.75,34.83V298.12"/><path class="cls-3" d="M126.75,300.2v2.07"/><path class="cls-3" d="M85.06,28.61v2.07"/><path class="cls-5" d="M85.06,34.83V298.12"/><path class="cls-3" d="M85.06,300.2v2.07"/><path class="cls-3" d="M43.36,28.61v2.07"/><path class="cls-5" d="M43.36,34.83V298.12"/><path class="cls-3" d="M43.36,300.2v2.07"/></g></svg>