<svg width="410" height="410" viewBox="0 0 410 410" fill="none" xmlns="http://www.w3.org/2000/svg">
<g id="graphic 1">
<path id="Vector" d="M410 0H0V410H410V0Z" fill="#28232D"/>
<g id="background" opacity="0.25">
<path d="M22.12 334.5H24.62" stroke="white" stroke-miterlimit="10"/>
<path d="M29.65 334.5H379.11" stroke="white" stroke-miterlimit="10" stroke-dasharray="5.03 5.03"/>
<path d="M381.62 334.5H384.12" stroke="white" stroke-miterlimit="10"/>
<path d="M22.12 304.5H24.62" stroke="white" stroke-miterlimit="10"/>
<path d="M29.65 304.5H379.11" stroke="white" stroke-miterlimit="10" stroke-dasharray="5.03 5.03"/>
<path d="M381.62 304.5H384.12" stroke="white" stroke-miterlimit="10"/>
<path d="M22.12 274.5H24.62" stroke="white" stroke-miterlimit="10"/>
<path d="M29.65 274.5H379.11" stroke="white" stroke-miterlimit="10" stroke-dasharray="5.03 5.03"/>
<path d="M381.62 274.5H384.12" stroke="white" stroke-miterlimit="10"/>
<path d="M22.12 244.5H24.62" stroke="white" stroke-miterlimit="10"/>
<path d="M29.65 244.5H379.11" stroke="white" stroke-miterlimit="10" stroke-dasharray="5.03 5.03"/>
<path d="M381.62 244.5H384.12" stroke="white" stroke-miterlimit="10"/>
<path d="M22.12 214.5H24.62" stroke="white" stroke-miterlimit="10"/>
<path d="M29.65 214.5H379.11" stroke="white" stroke-miterlimit="10" stroke-dasharray="5.03 5.03"/>
<path d="M381.62 214.5H384.12" stroke="white" stroke-miterlimit="10"/>
<path d="M22.12 184.5H24.62" stroke="white" stroke-miterlimit="10"/>
<path d="M29.65 184.5H379.11" stroke="white" stroke-miterlimit="10" stroke-dasharray="5.03 5.03"/>
<path d="M381.62 184.5H384.12" stroke="white" stroke-miterlimit="10"/>
<path d="M22.12 154.5H24.62" stroke="white" stroke-miterlimit="10"/>
<path d="M29.65 154.5H379.11" stroke="white" stroke-miterlimit="10" stroke-dasharray="5.03 5.03"/>
<path d="M381.62 154.5H384.12" stroke="white" stroke-miterlimit="10"/>
<path d="M22.12 124.5H24.62" stroke="white" stroke-miterlimit="10"/>
<path d="M29.65 124.5H379.11" stroke="white" stroke-miterlimit="10" stroke-dasharray="5.03 5.03"/>
<path d="M381.62 124.5H384.12" stroke="white" stroke-miterlimit="10"/>
<path d="M22.12 94.5H24.62" stroke="white" stroke-miterlimit="10"/>
<path d="M29.65 94.5H379.11" stroke="white" stroke-miterlimit="10" stroke-dasharray="5.03 5.03"/>
<path d="M381.62 94.5H384.12" stroke="white" stroke-miterlimit="10"/>
<path d="M22.12 64.5H24.62" stroke="white" stroke-miterlimit="10"/>
<path d="M29.65 64.5H379.11" stroke="white" stroke-miterlimit="10" stroke-dasharray="5.03 5.03"/>
<path d="M381.62 64.5H384.12" stroke="white" stroke-miterlimit="10"/>
<path d="M353.96 34.5V37" stroke="white" stroke-miterlimit="10"/>
<path d="M353.96 42V359.5" stroke="white" stroke-miterlimit="10" stroke-dasharray="5 5"/>
<path d="M353.96 362V364.5" stroke="white" stroke-miterlimit="10"/>
<path d="M303.68 34.5V37" stroke="white" stroke-miterlimit="10"/>
<path d="M303.68 42V359.5" stroke="white" stroke-miterlimit="10" stroke-dasharray="5 5"/>
<path d="M303.68 362V364.5" stroke="white" stroke-miterlimit="10"/>
<path d="M253.4 34.5V37" stroke="white" stroke-miterlimit="10"/>
<path d="M253.4 42V359.5" stroke="white" stroke-miterlimit="10" stroke-dasharray="5 5"/>
<path d="M253.4 362V364.5" stroke="white" stroke-miterlimit="10"/>
<path d="M203.12 34.5V37" stroke="white" stroke-miterlimit="10"/>
<path d="M203.12 42V359.5" stroke="white" stroke-miterlimit="10" stroke-dasharray="5 5"/>
<path d="M203.12 362V364.5" stroke="white" stroke-miterlimit="10"/>
<path d="M152.85 34.5V37" stroke="white" stroke-miterlimit="10"/>
<path d="M152.85 42V359.5" stroke="white" stroke-miterlimit="10" stroke-dasharray="5 5"/>
<path d="M152.85 362V364.5" stroke="white" stroke-miterlimit="10"/>
<path d="M102.57 34.5V37" stroke="white" stroke-miterlimit="10"/>
<path d="M102.57 42V359.5" stroke="white" stroke-miterlimit="10" stroke-dasharray="5 5"/>
<path d="M102.57 362V364.5" stroke="white" stroke-miterlimit="10"/>
<path d="M52.29 34.5V37" stroke="white" stroke-miterlimit="10"/>
<path d="M52.29 42V359.5" stroke="white" stroke-miterlimit="10" stroke-dasharray="5 5"/>
<path d="M52.29 362V364.5" stroke="white" stroke-miterlimit="10"/>
</g>
<path d="M103.62 305L183.62 215H228.62L303.62 125V155" stroke="#00FF00" stroke-width="4" stroke-linecap="round" stroke-linejoin="round"/>
<path d="M273.62 125H303.62" stroke="#00FF00" stroke-width="4" stroke-linecap="round" stroke-linejoin="round"/>
</g>
</svg>
