<svg width="340" height="340" viewBox="0 0 340 340" fill="none" xmlns="http://www.w3.org/2000/svg">
<path d="M340 0H0V340H340V0Z" fill="var(--bg-color)"/>
<g opacity="0.25" stroke="var(--font-color)"  stroke-width="0.829268">
<path d="M18.3434 277.39H20.4166" stroke-miterlimit="10"/>
<path d="M24.5878 277.39H314.384" stroke-miterlimit="10" stroke-dasharray="4.17 4.17"/>
<path d="M316.465 277.39H318.539" stroke-miterlimit="10"/>
<path d="M18.3434 252.512H20.4166" stroke-miterlimit="10"/>
<path d="M24.5878 252.512H314.384" stroke-miterlimit="10" stroke-dasharray="4.17 4.17"/>
<path d="M316.465 252.512H318.539" stroke-miterlimit="10"/>
<path d="M18.3434 227.634H20.4166" stroke-miterlimit="10"/>
<path d="M24.5878 227.634H314.384" stroke-miterlimit="10" stroke-dasharray="4.17 4.17"/>
<path d="M316.465 227.634H318.539" stroke-miterlimit="10"/>
<path d="M18.3434 202.756H20.4166" stroke-miterlimit="10"/>
<path d="M24.5878 202.756H314.384" stroke-miterlimit="10" stroke-dasharray="4.17 4.17"/>
<path d="M316.465 202.756H318.539" stroke-miterlimit="10"/>
<path d="M18.3434 177.878H20.4166" stroke-miterlimit="10"/>
<path d="M24.5878 177.878H314.384" stroke-miterlimit="10" stroke-dasharray="4.17 4.17"/>
<path d="M316.465 177.878H318.539" stroke-miterlimit="10"/>
<path d="M18.3434 153H20.4166" stroke-miterlimit="10"/>
<path d="M24.5878 153H314.384" stroke-miterlimit="10" stroke-dasharray="4.17 4.17"/>
<path d="M316.465 153H318.539" stroke-miterlimit="10"/>
<path d="M18.3434 128.122H20.4166" stroke-miterlimit="10"/>
<path d="M24.5878 128.122H314.384" stroke-miterlimit="10" stroke-dasharray="4.17 4.17"/>
<path d="M316.465 128.122H318.539" stroke-miterlimit="10"/>
<path d="M18.3434 103.244H20.4166" stroke-miterlimit="10"/>
<path d="M24.5878 103.244H314.384" stroke-miterlimit="10" stroke-dasharray="4.17 4.17"/>
<path d="M316.465 103.244H318.539" stroke-miterlimit="10"/>
<path d="M18.3434 78.3658H20.4166" stroke-miterlimit="10"/>
<path d="M24.5878 78.3658H314.384" stroke-miterlimit="10" stroke-dasharray="4.17 4.17"/>
<path d="M316.465 78.3658H318.539" stroke-miterlimit="10"/>
<path d="M18.3434 53.4878H20.4166" stroke-miterlimit="10"/>
<path d="M24.5878 53.4878H314.384" stroke-miterlimit="10" stroke-dasharray="4.17 4.17"/>
<path d="M316.465 53.4878H318.539" stroke-miterlimit="10"/>
<path d="M293.528 28.6097V30.6829" stroke-miterlimit="10"/>
<path d="M293.528 34.8293V298.122" stroke-miterlimit="10" stroke-dasharray="4.15 4.15"/>
<path d="M293.528 300.195V302.268" stroke-miterlimit="10"/>
<path d="M251.832 28.6097V30.6829" stroke-miterlimit="10"/>
<path d="M251.832 34.8293V298.122" stroke-miterlimit="10" stroke-dasharray="4.15 4.15"/>
<path d="M251.832 300.195V302.268" stroke-miterlimit="10"/>
<path d="M210.137 28.6097V30.6829" stroke-miterlimit="10"/>
<path d="M210.137 34.8293V298.122" stroke-miterlimit="10" stroke-dasharray="4.15 4.15"/>
<path d="M210.137 300.195V302.268" stroke-miterlimit="10"/>
<path d="M168.441 28.6097V30.6829" stroke-miterlimit="10"/>
<path d="M168.441 34.8293V298.122" stroke-miterlimit="10" stroke-dasharray="4.15 4.15"/>
<path d="M168.441 300.195V302.268" stroke-miterlimit="10"/>
<path d="M126.754 28.6097V30.6829" stroke-miterlimit="10"/>
<path d="M126.754 34.8293V298.122" stroke-miterlimit="10" stroke-dasharray="4.15 4.15"/>
<path d="M126.754 300.195V302.268" stroke-miterlimit="10"/>
<path d="M85.058 28.6097V30.6829" stroke-miterlimit="10"/>
<path d="M85.058 34.8293V298.122" stroke-miterlimit="10" stroke-dasharray="4.15 4.15"/>
<path d="M85.058 300.195V302.268" stroke-miterlimit="10"/>
<path d="M43.3624 28.6097V30.6829" stroke-miterlimit="10"/>
<path d="M43.3624 34.8293V298.122" stroke-miterlimit="10" stroke-dasharray="4.15 4.15"/>
<path d="M43.3624 300.195V302.268" stroke-miterlimit="10"/>
</g>
<path d="M85.9288 252.927L152.27 178.293H189.587L251.782 103.659V128.537" stroke="#00FF00" stroke-width="3.31707" stroke-linecap="round" stroke-linejoin="round"/>
<path d="M226.904 103.659H251.782" stroke="#00FF00" stroke-width="3.31707" stroke-linecap="round" stroke-linejoin="round"/>
</svg>
