<?xml version="1.0" encoding="UTF-8"?><svg xmlns="http://www.w3.org/2000/svg" xmlns:xlink="http://www.w3.org/1999/xlink" viewBox="0 0 50 50" version="1.1"><path d="M29.867 3.008c-.105.015-.21.047-.312.094-.86.425-1.836 1.691-2.024 1.941A8.965 8.965 0 0 0 26 9.988a9.875 9.875 0 0 0 .77 3.89c1.218 2.927 3.75 5.349 6.761 6.481l.375.133c.016.008.164.055.188.059l.11.039c.155.05.316.101.472.133.793.16 1.566.25 2.293.273.125 0 .25.004.375.004 5.48 0 7.605-3.867 8.312-5.156.07-.125.121-.227.168-.29 0-.003 0-.003.004-.007a1 1 0 0 0-1.652-1.125h-.004c-1.461 2.152-3.961 2.805-7.426 1.945a7.132 7.132 0 0 1-.789-.254 9.557 9.557 0 0 1-.96-.402c-.606-.3-1.177-.66-1.692-1.059-3.047-2.363-4.239-7.28-2.457-10.12a1 1 0 0 0-.98-1.524zM21.007 5a.979.979 0 0 0-.644.227c-1.511 1.23-3.058 3.246-3.125 3.328a.263.263 0 0 1-.027.043c-2.734 3.98-2.941 9.644-.523 14.43.378.757.808 1.48 1.265 2.144l.137.195c.387.567.82 1.207 1.375 1.707.191.219.398.43.601.633l.098.102.082.082c.207.199.418.402.637.597h.004c.015.024.039.04.058.059.246.219.496.426.828.687l.09.067a16.646 16.646 0 0 0 .871.652c.094.063.188.121.282.188l.093.062.11.07c.199.133.394.254.672.415.18.109.37.218.496.28.054.032.113.063.25.137l.304.16.102.047c.2.102.406.2.613.293l.317.141c.207.09.418.176.675.274l.118.042c.007.008.105.043.113.047.187.067.379.133.57.196l.438.144c.218.074.472.16.75.207a24.16 24.16 0 0 0 3.941.344c.149 0 .297-.004.442-.004 11.039-.242 13.91-9.621 13.937-9.715a1.004 1.004 0 0 0-.531-1.187 1 1 0 0 0-1.254.343c-2.797 4.086-8.086 5.813-13.473 4.391-.25-.062-.492-.133-.793-.23a2.676 2.676 0 0 1-.176-.063 9.093 9.093 0 0 1-.543-.187l-.277-.106c-.16-.062-.32-.125-.515-.21l-.13-.06c-.238-.1-.468-.214-.675-.316l-.57-.297c-.13-.062-.243-.132-.418-.238l-.098-.055-.098-.058a6.482 6.482 0 0 1-.422-.27l-.093-.058a1.38 1.38 0 0 1-.094-.067l-.34-.218c-.242-.172-.48-.352-.758-.57l-.11-.09c-2.577-2.06-4.484-4.81-5.378-7.758-.832-2.707-.215-6.25 1.652-9.477a.995.995 0 0 0-.218-1.262.985.985 0 0 0-.637-.238zM10.005 8c-.238 0-.48.086-.672.258-1.91 1.715-3.34 3.937-3.496 4.191-4.086 5.95-3.297 15.196-.492 20.848.054.117.113.23.172.344l.039.062c.05.113.11.23.129.254a.968.968 0 0 0 .097.18c.047.097.094.183.18.332l.32.55.11.18c.062.102.129.207.195.313l.156.25c.047.074.094.14.125.18.156.242.313.484.485.714.007.012.015.02.023.028l.063.086c.14.203.285.398.414.558l.57.723c.008.008.07.082.074.09l.082.093c.172.211.356.422.54.625.027.032.054.059.081.09.176.192.356.383.543.582l.18.172c.148.156.297.309.453.453 0 .004.074.074.074.074l.156.145c.188.18.383.36.532.484.008.012.148.133.16.141.183.164.367.32.555.473l.957.757c.16.118.324.235.511.372.063.046.13.093.196.136a.672.672 0 0 0 .078.059l.719.48c.261.172.523.332.843.524l.172.097c.2.118.402.235.594.336.113.063.226.118.324.168.137.075.285.157.512.266a18.4 18.4 0 0 0 .945.445c0 .004.094.047.094.047a42.158 42.158 0 0 0 .984.406c.242.094.496.188.703.262l.145.059a37.103 37.103 0 0 0 1.031.332l.2.062c.242.074.484.153.745.203 1.86.34 3.676.516 5.395.516h.004c14.324 0 18.887-11.527 18.933-11.645a1 1 0 0 0-1.734-.96c-3.676 4.84-10.61 6.636-18.547 4.812a10.624 10.624 0 0 1-.578-.16l-.375-.113a21.3 21.3 0 0 1-.754-.25c-.004 0-.117-.043-.117-.043-.219-.075-.437-.16-.629-.235l-.219-.086c-.242-.097-.484-.199-.718-.304l-.137-.059c-.211-.098-.414-.191-.617-.293a4.214 4.214 0 0 0-.192-.09c-.14-.07-.28-.144-.46-.242l-.817-.437a2.798 2.798 0 0 0-.25-.149c-.246-.152-.5-.305-.75-.465-.059-.035-.11-.074-.207-.14-.172-.11-.34-.223-.586-.395l-.098-.07c-.168-.117-.332-.242-.468-.344-.086-.062-.172-.133-.313-.238-.125-.098-.25-.192-.367-.285l-.219-.18c-.183-.149-.355-.305-.535-.457a.509.509 0 0 0-.07-.059c-.2-.183-.403-.367-.645-.597l-.707-.703a20.912 20.912 0 0 1-.539-.57c-.18-.2-.351-.4-.582-.673l-.422-.515a2.671 2.671 0 0 0-.172-.227c-.144-.195-.289-.387-.433-.59-3.89-5.36-4.907-16.547-1.875-20.644A1 1 0 0 0 10.004 8z" id="surface1"/><metadata><rdf:RDF xmlns:rdf="http://www.w3.org/1999/02/22-rdf-syntax-ns#" xmlns:rdfs="http://www.w3.org/2000/01/rdf-schema#" xmlns:dc="http://purl.org/dc/elements/1.1/"><rdf:Description about="https://iconscout.com/legal#licenses" dc:title="jquery,filled" dc:description="jquery,filled" dc:publisher="Iconscout" dc:date="2017-12-09" dc:format="image/svg+xml" dc:language="en"><dc:creator><rdf:Bag><rdf:li>Icons8</rdf:li></rdf:Bag></dc:creator></rdf:Description></rdf:RDF></metadata></svg>