<svg width="1702" height="98" viewBox="0 0 1702 98" fill="none" xmlns="http://www.w3.org/2000/svg">
<g id="konacna" clip-path="url(#clip0)">
<g id="leva">
<g id="prozirna-leva" filter="url(#filter0_f)">
<mask id="path-1-outside-1" maskUnits="userSpaceOnUse" x="2.13104" y="-0.457703" width="630" height="93" fill="black">
<rect fill="white" x="2.13104" y="-0.457703" width="630" height="93"/>
<path d="M2.13104 4.5423H570.411L627.24 89.7103"/>
</mask>
<path d="M570.411 4.5423L574.571 1.76713L573.086 -0.457703H570.411V4.5423ZM2.13104 9.5423H570.411V-0.457703H2.13104V9.5423ZM566.252 7.31747L623.08 92.4855L631.399 86.9351L574.571 1.76713L566.252 7.31747Z" fill="#9EA6D4" fill-opacity="0.25" mask="url(#path-1-outside-1)"/>
</g>
<g id="srednja-leva" filter="url(#filter1_f)">
<path d="M0.994507 6.52957H569.275L626.103 91.6976" stroke="#00D017" stroke-opacity="0.5" stroke-width="2" stroke-miterlimit="10"/>
</g>
<path id="vidljiva-leva" d="M0 8.80066H568.28L625.109 93.9687" stroke="#22244F" stroke-width="2" stroke-miterlimit="10"/>
</g>
<g id="desna">
<g id="prozirna-desna" filter="url(#filter2_f)">
<mask id="path-5-outside-2" maskUnits="userSpaceOnUse" x="1069.9" y="-0.741638" width="631" height="93" fill="black">
<rect fill="white" x="1069.9" y="-0.741638" width="631" height="93"/>
<path d="M1700.01 4.25836H1131.73L1074.9 89.4264"/>
</mask>
<path d="M1131.73 4.25836V-0.741638H1129.06L1127.57 1.48319L1131.73 4.25836ZM1700.01 -0.741638H1131.73V9.25836H1700.01V-0.741638ZM1127.57 1.48319L1070.74 86.6512L1079.06 92.2015L1135.89 7.03353L1127.57 1.48319Z" fill="#9EA6D4" fill-opacity="0.25" mask="url(#path-5-outside-2)"/>
</g>
<g id="srednja-desna" filter="url(#filter3_f)">
<path d="M1701.01 6.52951H1132.73L1075.9 91.6975" stroke="#00D017" stroke-opacity="0.5" stroke-width="2" stroke-miterlimit="10"/>
</g>
<path id="vidljiva-desna" d="M1702 8.80066H1133.72L1076.89 93.9687" stroke="#22244F" stroke-width="2" stroke-miterlimit="10"/>
</g>
<g id="srednja">
<g id="prozirna-srednja" filter="url(#filter4_f)">
<path d="M623.688 89.1993H1078.31" stroke="#9EA6D4" stroke-opacity="0.25" stroke-width="5" stroke-miterlimit="4.36623"/>
</g>
<g id="srednja-srednja" filter="url(#filter5_f)">
<path d="M623.688 91.4705H1078.31" stroke="#00D017" stroke-opacity="0.5" stroke-width="2" stroke-miterlimit="10"/>
</g>
<path id="vidljiva-srednja" d="M623.688 93.7416H1078.31" stroke="#22244F" stroke-width="2"/>
</g>
</g>
<defs>
<filter id="filter0_f" x="-7.86896" y="-10.4577" width="649.268" height="112.943" filterUnits="userSpaceOnUse" color-interpolation-filters="sRGB">
<feFlood flood-opacity="0" result="BackgroundImageFix"/>
<feBlend mode="normal" in="SourceGraphic" in2="BackgroundImageFix" result="shape"/>
<feGaussianBlur stdDeviation="5" result="effect1_foregroundBlur"/>
</filter>
<filter id="filter1_f" x="-4.00549" y="0.529572" width="635.94" height="96.723" filterUnits="userSpaceOnUse" color-interpolation-filters="sRGB">
<feFlood flood-opacity="0" result="BackgroundImageFix"/>
<feBlend mode="normal" in="SourceGraphic" in2="BackgroundImageFix" result="shape"/>
<feGaussianBlur stdDeviation="2.5" result="effect1_foregroundBlur"/>
</filter>
<filter id="filter2_f" x="1060.74" y="-10.7416" width="649.268" height="112.943" filterUnits="userSpaceOnUse" color-interpolation-filters="sRGB">
<feFlood flood-opacity="0" result="BackgroundImageFix"/>
<feBlend mode="normal" in="SourceGraphic" in2="BackgroundImageFix" result="shape"/>
<feGaussianBlur stdDeviation="5" result="effect1_foregroundBlur"/>
</filter>
<filter id="filter3_f" x="1070.07" y="0.52951" width="635.94" height="96.723" filterUnits="userSpaceOnUse" color-interpolation-filters="sRGB">
<feFlood flood-opacity="0" result="BackgroundImageFix"/>
<feBlend mode="normal" in="SourceGraphic" in2="BackgroundImageFix" result="shape"/>
<feGaussianBlur stdDeviation="2.5" result="effect1_foregroundBlur"/>
</filter>
<filter id="filter4_f" x="613.688" y="76.6993" width="474.624" height="25" filterUnits="userSpaceOnUse" color-interpolation-filters="sRGB">
<feFlood flood-opacity="0" result="BackgroundImageFix"/>
<feBlend mode="normal" in="SourceGraphic" in2="BackgroundImageFix" result="shape"/>
<feGaussianBlur stdDeviation="5" result="effect1_foregroundBlur"/>
</filter>
<filter id="filter5_f" x="618.688" y="85.4705" width="464.624" height="12" filterUnits="userSpaceOnUse" color-interpolation-filters="sRGB">
<feFlood flood-opacity="0" result="BackgroundImageFix"/>
<feBlend mode="normal" in="SourceGraphic" in2="BackgroundImageFix" result="shape"/>
<feGaussianBlur stdDeviation="2.5" result="effect1_foregroundBlur"/>
</filter>
<clipPath id="clip0">
<rect width="1702" height="98" fill="white"/>
</clipPath>
</defs>
</svg>
